PathFileType	4	(X/Y/Z)	/Users/itak/Documents/Research/Walk-IL/dataset/trc/00078_00006.trc
DataRate	CameraRate	NumFrames	NumMarkers	Units	OrigDataRate	OrigDataStartFrame	OrigNumFrames
100.000000	100.000000	4	53	mm	100.000000	305	611
Frame#	Time	RPSI			LPSI			L3			STRN			T10			C7			CLAV			RBAK			LBAK			LSHO			LUPA			LAEL			LAOL			LWTS			LWPS			LFRA			LIFD			LHPS			LHTS			RSHO			RUPA			RAEL			RAOL			RWTS			RWPS			RFRA			RIFD			RHTS			RHPS			RBHD			LFHD			RFHD			LBHD			LHIP			RHIP			RASI			LASI			LKNE			LTHI			LANK			LTIP			LTOE			LMT1			LMT5			LHEE			RKNE			RTHI			RANK			RTIP			RTOE			RMT1			RMT5			RHEE			
		X1	Y1	Z1	X2	Y2	Z2	X3	Y3	Z3	X4	Y4	Z4	X5	Y5	Z5	X6	Y6	Z6	X7	Y7	Z7	X8	Y8	Z8	X9	Y9	Z9	X10	Y10	Z10	X11	Y11	Z11	X12	Y12	Z12	X13	Y13	Z13	X14	Y14	Z14	X15	Y15	Z15	X16	Y16	Z16	X17	Y17	Z17	X18	Y18	Z18	X19	Y19	Z19	X20	Y20	Z20	X21	Y21	Z21	X22	Y22	Z22	X23	Y23	Z23	X24	Y24	Z24	X25	Y25	Z25	X26	Y26	Z26	X27	Y27	Z27	X28	Y28	Z28	X29	Y29	Z29	X30	Y30	Z30	X31	Y31	Z31	X32	Y32	Z32	X33	Y33	Z33	X34	Y34	Z34	X35	Y35	Z35	X36	Y36	Z36	X37	Y37	Z37	X38	Y38	Z38	X39	Y39	Z39	X40	Y40	Z40	X41	Y41	Z41	X42	Y42	Z42	X43	Y43	Z43	X44	Y44	Z44	X45	Y45	Z45	X46	Y46	Z46	X47	Y47	Z47	X48	Y48	Z48	X49	Y49	Z49	X50	Y50	Z50	X51	Y51	Z51	X52	Y52	Z52	X53	Y53	Z53	

306	3.05	-664.1536254882812	1023.491333007812	434.538818359375	-724.4302978515625	1018.606689453125	273.0945739746094	-693.7902221679688	1083.565063476562	345.0276489257812	-444.9260559082031	1277.099853515625	283.6676330566406	-707.737060546875	1215.089721679688	340.7693481445312	-643.804931640625	1481.40380859375	335.9672241210938	-472.0408325195312	1392.0625	294.0565490722656	-691.6242065429688	1341.208374023438	416.0972900390625	-690.913330078125	1449.106323242188	242.0313568115234	-607.8157958984375	1456.401733398438	149.6470794677734	-644.3533325195312	1336.261596679688	70.13571166992188	-627.3467407226562	1124.552124023438	26.07821083068848	-667.7262573242188	1099.899291992188	121.2393646240234	-470.7516174316406	918.664794921875	69.01808929443359	-535.9656372070312	887.4154052734375	25.83566093444824	-586.0111694335938	1021.130004882812	13.5732889175415	-406.22509765625	743.79638671875	87.09841918945312	-484.4578552246094	819.0722045898438	23.93832588195801	-429.1818237304688	843.5494384765625	60.63311767578125	-545.2451782226562	1438.52978515625	490.2562561035156	-549.9163818359375	1370.602905273438	552.8580322265625	-597.11865234375	1116.037231445312	599.9971313476562	-595.147705078125	1087.297973632812	503.5600280761719	-480.5334777832031	852.4859619140625	551.7205810546875	-544.02783203125	842.9738159179688	611.8147583007812	-589.9898681640625	1034.255981445312	609.9228515625	-489.6383361816406	665.2501220703125	539.9871826171875	-463.1694030761719	751.6408081054688	551.4644775390625	-510.6969604492188	752.9498901367188	611.837158203125	-604.5809326171875	1674.38916015625	307.4784545898438	-389.3309020996094	1670.160400390625	297.008056640625	-464.7781982421875	1676.368896484375	196.1434478759766	-517.4318237304688	1658.118286132812	412.1943969726562	-656.5017700195312	954.0426025390625	152.0526428222656	-574.1471557617188	955.0870971679688	488.2557678222656	-466.0622253417969	976.22705078125	427.5503234863281	-535.01611328125	964.9495849609375	168.8522491455078	-538.4437255859375	495.3212890625	248.581298828125	-586.1633911132812	628.256591796875	194.6497650146484	-663.7345581054688	47.96570587158203	291.0155639648438	-604.27001953125	253.7919158935547	262.0168151855469	-457.3022766113281	44.00086975097656	311.2573547363281	-510.6993103027344	41.52411651611328	358.6693115234375	-558.7445678710938	42.27640151977539	257.7077941894531	-717.4466552734375	46.95590591430664	366.2210388183594	-350.2272338867188	548.2642822265625	415.2501831054688	-443.8604431152344	803.5916748046875	462.4889526367188	-546.081787109375	97.59264373779297	499.5068664550781	-383.730224609375	426.3161010742188	439.7746887207031	-361.3014526367188	66.10985565185547	403.9129638671875	-426.8607177734375	72.90274047851562	382.4059448242188	-427.0401611328125	75.71015167236328	481.2566223144531	-603.7952880859375	111.0756607055664	456.5621032714844	
307	3.06	-655.33447265625	1023.003173828125	433.0843200683594	-717.1072998046875	1018.060119628906	272.2940368652344	-686.282958984375	1083.34033203125	343.8262939453125	-437.8150329589844	1276.608032226562	280.574951171875	-700.2411499023438	1214.578369140625	339.1409301757812	-636.3682861328125	1480.8994140625	333.8302307128906	-464.839111328125	1391.5556640625	291.1492919921875	-683.8321533203125	1340.734619140625	414.2112731933594	-684.0034790039062	1448.576904296875	240.1116180419922	-601.30517578125	1455.813354492188	147.3793487548828	-637.7577514648438	1335.517822265625	68.04030609130859	-619.5689086914062	1123.88134765625	23.93093681335449	-659.8650512695312	1098.9755859375	119.0713348388672	-461.1421813964844	919.5123901367188	67.47801208496094	-525.9762573242188	887.6671752929688	23.9901180267334	-577.2728881835938	1020.827087402344	11.59619235992432	-395.2519226074219	745.153076171875	86.07012939453125	-473.7639770507812	819.7532958984375	22.44242095947266	-418.8624572753906	844.7060546875	59.38272857666016	-537.1286010742188	1438.054077148438	487.653564453125	-541.5953979492188	1370.174194335938	550.2114868164062	-589.53759765625	1115.872802734375	597.6797485351562	-587.779052734375	1087.0302734375	501.2668762207031	-473.5940551757812	851.9837036132812	549.29052734375	-537.156005859375	842.6741943359375	609.65185546875	-582.5896606445312	1034.089233398438	607.6707763671875	-483.4891967773438	664.7078247070312	537.933349609375	-456.7252502441406	751.0532836914062	549.1944580078125	-504.1049499511719	752.5632934570312	609.6993408203125	-596.7593383789062	1674.0634765625	304.9861145019531	-381.6260375976562	1669.270874023438	293.7104797363281	-457.2918701171875	1675.494140625	193.1604309082031	-509.2916259765625	1657.641723632812	409.3911437988281	-649.9286499023438	953.4720458984375	150.7816314697266	-564.5262451171875	954.8596801757812	485.9450988769531	-457.203125	976.1055908203125	424.0960998535156	-528.8726806640625	964.4310302734375	166.1162414550781	-535.3237915039062	494.222900390625	246.6419219970703	-582.138427734375	627.6290893554688	193.0982513427734	-663.779296875	47.88736343383789	290.9108581542969	-602.97119140625	253.2684936523438	261.0596618652344	-457.158203125	43.84823989868164	311.1224670410156	-510.5957336425781	41.76981353759766	358.5296325683594	-558.72900390625	41.89032363891602	257.4463806152344	-717.5075073242188	47.28123092651367	366.1648254394531	-339.207763671875	549.5841674804688	409.0511474609375	-434.1064758300781	803.8289794921875	458.6249694824219	-514.0126953125	89.99114990234375	491.4717712402344	-367.6197814941406	426.2134399414062	432.787841796875	-330.5958251953125	67.28786468505859	390.9999389648438	-396.8262634277344	71.7022705078125	371.2125549316406	-394.6454467773438	73.252197265625	469.9999084472656	-573.19384765625	101.6251068115234	450.07275390625	
308	3.07	-646.4991455078125	1022.400207519531	431.5963745117188	-709.7386474609375	1017.390502929688	271.4427490234375	-678.7314453125	1082.996215820312	342.6084289550781	-430.6802062988281	1276.015869140625	277.450927734375	-692.6685791015625	1213.969116210938	337.5489807128906	-628.8717651367188	1480.294555664062	331.6968078613281	-457.5978088378906	1390.952758789062	288.2027282714844	-675.9766235351562	1340.1669921875	412.3404235839844	-677.0845947265625	1447.9404296875	238.1974029541016	-594.7839965820312	1455.120849609375	145.1141357421875	-631.1575317382812	1334.67041015625	65.95075988769531	-611.7973022460938	1123.120239257812	21.77915382385254	-651.9725952148438	1097.955688476562	116.9100570678711	-451.5958251953125	920.2086181640625	65.85430908203125	-516.052734375	887.8363037109375	22.06020164489746	-568.554931640625	1020.43310546875	9.591364860534668	-384.4674682617188	746.31005859375	84.91588592529297	-463.234619140625	820.314697265625	20.8292179107666	-408.6596984863281	845.6921997070312	58.03039932250977	-528.9258422851562	1437.50390625	485.0184326171875	-533.1531372070312	1369.65966796875	547.5311889648438	-581.8673706054688	1115.645263671875	595.3475952148438	-580.3255004882812	1086.701782226562	498.9596252441406	-466.6500854492188	851.3743286132812	546.8445434570312	-530.2421264648438	842.3161010742188	607.4764404296875	-575.0968017578125	1033.855346679688	605.4100952148438	-477.3735961914062	664.074951171875	535.8666381835938	-450.3078918457031	750.35400390625	546.8967895507812	-497.5000915527344	752.0999145507812	607.5392456054688	-588.8899536132812	1673.645385742188	302.4786682128906	-373.8756103515625	1668.26904296875	290.3925476074219	-449.7715759277344	1674.525512695312	190.1576080322266	-501.09716796875	1657.0576171875	406.5653076171875	-643.4300537109375	952.8204345703125	149.4100341796875	-554.8844604492188	954.5192260742188	483.6175537109375	-448.3345947265625	975.8335571289062	420.6286315917969	-522.6619873046875	963.8204956054688	163.3916168212891	-531.9560546875	493.0750122070312	244.7334747314453	-577.892822265625	626.933349609375	191.5131378173828	-663.7900390625	47.82452774047852	290.8179016113281	-601.5211791992188	252.7232208251953	260.1204833984375	-456.9972839355469	43.69285583496094	311.0006408691406	-510.4766845703125	41.95010375976562	358.4167785644531	-558.705810546875	41.53836822509766	257.2122802734375	-717.5604248046875	47.64017486572266	366.0859680175781	-328.7731628417969	550.4986572265625	403.0170288085938	-424.4757080078125	803.8239135742188	454.7777404785156	-481.8226318359375	82.85190582275391	482.8359069824219	-352.0205078125	425.9481811523438	425.8145141601562	-300.342529296875	68.98973846435547	377.5654602050781	-367.1148681640625	70.99581909179688	359.5061950683594	-362.4671325683594	71.29681396484375	458.1644897460938	-542.3567504882812	92.53096008300781	443.0630798339844	
309	3.08	-637.636962890625	1021.670043945312	430.0720520019531	-702.3162231445312	1016.592651367188	270.5388793945312	-671.1221923828125	1082.524047851562	341.3656311035156	-423.5124206542969	1275.319458007812	274.2941589355469	-685.02587890625	1213.258544921875	335.9873352050781	-621.31591796875	1479.589477539062	329.5610656738281	-450.3189697265625	1390.247680664062	285.2171020507812	-668.0540771484375	1339.503540039062	410.479736328125	-670.1470336914062	1447.194091796875	236.2852172851562	-588.2459106445312	1454.3203125	142.8475341796875	-624.54736328125	1333.718505859375	63.86235427856445	-604.0370483398438	1122.267211914062	19.61091423034668	-644.0516967773438	1096.839599609375	114.7457122802734	-442.1092224121094	920.7608032226562	64.129150390625	-506.1898803710938	887.9119873046875	20.04678535461426	-559.8626708984375	1019.943969726562	7.547544002532959	-373.822509765625	747.30078125	83.61277008056641	-452.8542175292969	820.7537231445312	19.09229850769043	-398.5666198730469	846.5150146484375	56.55461502075195	-520.6368408203125	1436.873168945312	482.3494567871094	-524.592529296875	1369.0595703125	544.8189086914062	-574.103271484375	1115.350463867188	593.008544921875	-572.7886352539062	1086.30859375	496.6471862792969	-459.69970703125	850.659912109375	544.3884887695312	-523.2755737304688	841.8932495117188	605.2861938476562	-567.5083618164062	1033.548950195312	603.1478881835938	-471.2668151855469	663.3607177734375	533.7616577148438	-443.8959350585938	749.5435180664062	544.5630493164062	-490.8754577636719	751.5523681640625	605.3485717773438	-580.96484375	1673.119873046875	299.9610900878906	-366.0707092285156	1667.158203125	287.0571594238281	-442.2176818847656	1673.477416992188	187.1375274658203	-492.840087890625	1656.35693359375	403.7162475585938	-637.0564575195312	952.0907592773438	147.9034729003906	-545.2318115234375	954.0516357421875	481.26220703125	-439.4455871582031	975.4034423828125	417.1383972167969	-516.3745727539062	963.11474609375	160.6662902832031	-528.3394165039062	491.87548828125	242.8857116699219	-573.41845703125	626.1591796875	189.9137420654297	-663.76416015625	47.78284072875977	290.7447509765625	-599.9188232421875	252.1513671875	259.2256469726562	-456.8297729492188	43.53879547119141	310.8937072753906	-510.3502197265625	42.05336380004883	358.331787109375	-558.6780395507812	41.23258972167969	257.0109558105469	-717.5913696289062	48.02006530761719	366.0016479492188	-318.8958435058594	550.9826049804688	397.1851806640625	-414.9228820800781	803.5850219726562	450.9557189941406	-449.6062927246094	76.24529266357422	473.5740661621094	-336.9562072753906	425.5147399902344	418.9022827148438	-270.5839538574219	71.33234405517578	363.6883239746094	-337.7732849121094	70.87211608886719	347.3240661621094	-330.6142883300781	69.94361877441406	445.7912902832031	-511.3935852050781	83.86916351318359	435.4659729003906	
